<svg width="250" height="52" viewBox="0 0 250 52" fill="none" xmlns="http://www.w3.org/2000/svg">
<g clip-path="url(#clip0_6463_10744)">
<path d="M37.3776 32.5038L24.1367 45.6162C22.1295 47.6044 18.8901 47.589 16.9019 45.5809L15.5085 44.1739C15.6697 44.1929 15.8327 44.2029 15.9956 44.2029C17.0395 44.2029 18.0834 43.8082 18.8819 43.0169L34.8462 27.2065C35.7597 26.302 36.1581 25.0708 36.0386 23.8811L37.4129 25.2681C39.4011 27.2762 39.3857 30.5156 37.3776 32.5038Z" fill="white"/>
<path d="M24.0094 11.7352C22.8206 11.6039 21.5848 11.9896 20.6713 12.8949L4.70608 28.7053C3.78261 29.6197 3.38606 30.8682 3.51734 32.0687L2.31954 30.8592C0.33136 28.8511 0.347656 25.6117 2.35485 23.6235L15.5958 10.5102C17.6039 8.52203 20.8433 8.53833 22.8315 10.5455L24.0094 11.7352Z" fill="white"/>
<path d="M19.6134 41.0191L18.2463 42.3735C16.9941 43.6139 14.9661 43.6039 13.7258 42.3518L9.72949 38.3157L13.4388 34.6399L19.6134 41.0191Z" fill="white"/>
<path d="M31.8895 28.8602L20.2556 40.3827L17.5476 37.5843L29.3128 26.1975L31.8895 28.8602Z" fill="white"/>
<path d="M34.2085 26.5627L32.5327 28.2222L26.3545 21.8394L30.2222 18.0061L34.3842 22.2088C35.467 23.4682 35.4063 25.3758 34.2085 26.5627Z" fill="white"/>
<path d="M29.5855 17.364L25.725 21.1891L19.7822 15.0499L21.3087 13.5379C21.9307 12.9213 22.7446 12.6135 23.5576 12.6135C24.3127 12.6135 25.0677 12.8788 25.668 13.4084L29.5855 17.364Z" fill="white"/>
<path d="M21.9056 18.544L10.1404 29.9317L7.50488 27.2084L19.1397 15.6858L21.9056 18.544Z" fill="white"/>
<path d="M12.808 33.9891L9.09061 37.673L5.32339 33.8678C4.08304 32.6156 4.09299 30.5876 5.34511 29.3482L6.8616 27.8462L12.808 33.9891Z" fill="white"/>
</g>
<path d="M68.4606 17.7806C68.1633 17.4535 67.7321 17.1116 67.1671 16.7548C66.6022 16.3682 65.9331 16.0114 65.16 15.6843C64.3869 15.3572 63.5543 15.0896 62.6622 14.8814C61.7702 14.6733 60.8484 14.5692 59.8969 14.5692C57.8154 14.5692 56.2692 14.9558 55.2582 15.7289C54.2472 16.502 53.7417 17.5725 53.7417 18.9403C53.7417 19.9513 54.0242 20.7542 54.5891 21.3489C55.1541 21.9138 56.0164 22.3896 57.1761 22.7762C58.3358 23.1627 59.7928 23.579 61.5472 24.025C63.6881 24.5305 65.5466 25.1401 67.1225 25.8538C68.6985 26.5377 69.9028 27.4595 70.7354 28.6191C71.568 29.7788 71.9843 31.3102 71.9843 33.2132C71.9843 34.8189 71.6869 36.2016 71.0922 37.3613C70.4975 38.521 69.6649 39.4725 68.5944 40.2159C67.524 40.9295 66.2899 41.4648 64.8924 41.8216C63.4948 42.1487 61.9932 42.3122 60.3875 42.3122C58.8115 42.3122 57.2356 42.1487 55.6596 41.8216C54.1134 41.4945 52.6266 41.0187 51.1993 40.3943C49.8017 39.7401 48.5083 38.9521 47.3189 38.0303L49.5936 33.7485C49.9802 34.135 50.5303 34.5662 51.2439 35.0419C51.9873 35.488 52.8347 35.9191 53.7863 36.3354C54.7675 36.7517 55.8231 37.1085 56.9531 37.4059C58.1128 37.6735 59.2873 37.8073 60.4767 37.8073C62.469 37.8073 63.9855 37.4654 65.0262 36.7815C66.0967 36.0678 66.6319 35.0568 66.6319 33.7485C66.6319 32.678 66.2899 31.8305 65.606 31.2061C64.9221 30.5519 63.926 30.0018 62.6176 29.5558C61.3093 29.1098 59.7482 28.6637 57.9343 28.2177C55.8529 27.6527 54.1134 27.0432 52.7158 26.389C51.3182 25.7051 50.2626 24.8428 49.549 23.802C48.8651 22.7316 48.5231 21.3786 48.5231 19.7432C48.5231 17.6617 49.0286 15.9073 50.0396 14.48C51.0506 13.023 52.4185 11.9377 54.1431 11.224C55.8975 10.4806 57.86 10.1089 60.0307 10.1089C61.458 10.1089 62.8109 10.2725 64.0895 10.5996C65.3682 10.8969 66.5576 11.3132 67.6578 11.8484C68.7877 12.3837 69.8136 12.9933 70.7354 13.6772L68.4606 17.7806ZM86.9409 42.446C85.127 42.446 83.4767 42.1338 81.9899 41.5094C80.5329 40.8552 79.2692 39.978 78.1987 38.8778C77.1282 37.7479 76.2956 36.4692 75.7009 35.0419C75.136 33.5849 74.8535 32.0387 74.8535 30.4032C74.8535 28.2028 75.359 26.1957 76.37 24.3819C77.381 22.5383 78.7934 21.0664 80.6072 19.9662C82.4211 18.8362 84.5472 18.2713 86.9855 18.2713C89.4237 18.2713 91.5201 18.8362 93.2745 19.9662C95.0586 21.0664 96.4413 22.5234 97.4225 24.3373C98.4038 26.1511 98.8944 28.0988 98.8944 30.1802C98.8944 30.5371 98.8796 30.879 98.8498 31.2061C98.8201 31.5035 98.7904 31.7562 98.7606 31.9644H80.072C80.1612 33.3322 80.5329 34.5365 81.1871 35.5772C81.871 36.5882 82.7333 37.391 83.774 37.9857C84.8148 38.5507 85.9299 38.8332 87.1193 38.8332C88.4276 38.8332 89.6616 38.5061 90.8213 37.8519C92.0107 37.1978 92.8136 36.3354 93.2299 35.265L97.4225 36.4692C96.917 37.5992 96.1439 38.625 95.1032 39.5468C94.0922 40.4389 92.8879 41.1525 91.4903 41.6878C90.0928 42.1933 88.5763 42.446 86.9409 42.446ZM79.9382 28.7083H94.0327C93.9435 27.3703 93.5569 26.1957 92.873 25.1847C92.2189 24.144 91.3714 23.3411 90.3307 22.7762C89.3197 22.1814 88.1897 21.8841 86.9409 21.8841C85.7217 21.8841 84.5918 22.1814 83.551 22.7762C82.54 23.3411 81.7074 24.144 81.0533 25.1847C80.3991 26.1957 80.0274 27.3703 79.9382 28.7083ZM116.01 22.91C114.107 22.9397 112.412 23.3709 110.925 24.2034C109.468 25.036 108.427 26.2106 107.803 27.7271V42H102.896V18.6727H107.446V23.8912C108.249 22.2855 109.304 21.0069 110.613 20.0554C111.921 19.0741 113.304 18.5389 114.761 18.4497C115.058 18.4497 115.296 18.4497 115.475 18.4497C115.683 18.4497 115.861 18.4645 116.01 18.4943V22.91ZM155.261 42H150.355V28.9314C150.355 26.7607 149.998 25.1698 149.285 24.1588C148.571 23.1478 147.53 22.6423 146.162 22.6423C144.795 22.6423 143.516 23.1627 142.326 24.2034C141.167 25.2144 140.349 26.5377 139.873 28.1731V42H134.967V28.9314C134.967 26.7607 134.61 25.1698 133.897 24.1588C133.183 23.1478 132.157 22.6423 130.819 22.6423C129.451 22.6423 128.173 23.1478 126.983 24.1588C125.823 25.1698 124.991 26.4931 124.485 28.1285V42H119.579V18.6727H124.039V23.356C124.961 21.7206 126.165 20.4717 127.652 19.6093C129.169 18.7173 130.893 18.2713 132.826 18.2713C134.759 18.2713 136.275 18.7768 137.376 19.7878C138.506 20.7988 139.204 22.0625 139.472 23.579C140.483 21.8544 141.717 20.546 143.174 19.654C144.661 18.7322 146.356 18.2713 148.259 18.2713C149.626 18.2713 150.771 18.524 151.693 19.0295C152.615 19.535 153.329 20.2338 153.834 21.1258C154.34 21.9882 154.696 22.9992 154.905 24.1588C155.142 25.2888 155.261 26.4931 155.261 27.7717V42ZM159.22 35.1758C159.22 33.689 159.636 32.3955 160.469 31.2953C161.331 30.1654 162.506 29.303 163.993 28.7083C165.479 28.0839 167.204 27.7717 169.167 27.7717C170.207 27.7717 171.263 27.846 172.333 27.9947C173.434 28.1434 174.4 28.3813 175.233 28.7083V27.2364C175.233 25.601 174.742 24.3224 173.761 23.4006C172.779 22.4788 171.367 22.0179 169.523 22.0179C168.215 22.0179 166.981 22.2558 165.821 22.7316C164.662 23.1776 163.428 23.8169 162.119 24.6495L160.469 21.3489C162.015 20.3081 163.562 19.535 165.108 19.0295C166.684 18.524 168.334 18.2713 170.059 18.2713C173.181 18.2713 175.634 19.1039 177.418 20.769C179.232 22.4045 180.139 24.7387 180.139 27.7717V36.4692C180.139 37.0342 180.228 37.4356 180.407 37.6735C180.615 37.9114 180.957 38.0452 181.432 38.0749V42C180.986 42.0892 180.585 42.1487 180.228 42.1784C179.871 42.2081 179.574 42.223 179.336 42.223C178.295 42.223 177.507 41.9703 176.972 41.4648C176.437 40.9593 176.125 40.3646 176.035 39.6806L175.902 38.3426C174.891 39.6509 173.597 40.6619 172.021 41.3756C170.445 42.0892 168.854 42.446 167.249 42.446C165.702 42.446 164.32 42.1338 163.101 41.5094C161.881 40.8552 160.93 39.978 160.246 38.8778C159.562 37.7776 159.22 36.5436 159.22 35.1758ZM174.073 36.6031C174.43 36.2165 174.712 35.8299 174.92 35.4434C175.129 35.0568 175.233 34.7149 175.233 34.4175V31.7413C174.4 31.4142 173.523 31.1764 172.601 31.0277C171.679 30.8493 170.772 30.7601 169.88 30.7601C168.096 30.7601 166.639 31.1169 165.509 31.8305C164.409 32.5442 163.859 33.5255 163.859 34.7743C163.859 35.4582 164.037 36.1124 164.394 36.7369C164.781 37.3613 165.316 37.8668 166 38.2534C166.713 38.6399 167.591 38.8332 168.631 38.8332C169.702 38.8332 170.728 38.625 171.709 38.2088C172.69 37.7925 173.478 37.2572 174.073 36.6031ZM186.136 9.43989H191.042V35.265C191.042 36.4544 191.221 37.2126 191.577 37.5397C191.934 37.8668 192.38 38.0303 192.916 38.0303C193.51 38.0303 194.06 37.9709 194.566 37.8519C195.101 37.733 195.562 37.5843 195.949 37.4059L196.662 41.2864C195.949 41.5837 195.101 41.8365 194.12 42.0446C193.139 42.2527 192.261 42.3568 191.488 42.3568C189.823 42.3568 188.515 41.8959 187.563 40.9741C186.612 40.0226 186.136 38.7143 186.136 37.0491V9.43989ZM199.284 32.9456V18.6727H204.19V31.9644C204.19 34.0458 204.562 35.6218 205.305 36.6923C206.079 37.733 207.194 38.2534 208.651 38.2534C209.572 38.2534 210.464 38.0601 211.327 37.6735C212.219 37.287 213.022 36.722 213.735 35.9786C214.479 35.2055 215.073 34.2837 215.519 33.2132V18.6727H220.426V36.4692C220.426 37.0342 220.53 37.4356 220.738 37.6735C220.946 37.9114 221.288 38.0452 221.764 38.0749V42C221.258 42.0892 220.842 42.1487 220.515 42.1784C220.188 42.2081 219.876 42.223 219.578 42.223C218.686 42.223 217.943 41.9851 217.348 41.5094C216.753 41.0039 216.412 40.3646 216.322 39.5914L216.233 37.2721C215.192 38.967 213.839 40.2605 212.174 41.1525C210.509 42.0149 208.68 42.446 206.688 42.446C204.25 42.446 202.406 41.6432 201.157 40.0375C199.908 38.4318 199.284 36.0678 199.284 32.9456ZM237.258 42.446C235.444 42.446 233.794 42.1338 232.307 41.5094C230.85 40.8552 229.586 39.9631 228.516 38.8332C227.445 37.7033 226.613 36.4098 226.018 34.9527C225.453 33.4957 225.17 31.9495 225.17 30.314C225.17 28.1136 225.661 26.1065 226.642 24.2927C227.653 22.4788 229.051 21.0218 230.835 19.9216C232.649 18.8214 234.79 18.2713 237.258 18.2713C239.637 18.2713 241.703 18.8065 243.458 19.877C245.242 20.9177 246.55 22.3153 247.383 24.0696L242.61 25.5861C242.075 24.6049 241.317 23.8466 240.335 23.3114C239.384 22.7464 238.328 22.4639 237.169 22.4639C235.86 22.4639 234.671 22.8059 233.6 23.4898C232.56 24.144 231.727 25.0658 231.103 26.2552C230.508 27.4149 230.211 28.7678 230.211 30.314C230.211 31.8008 230.523 33.1538 231.147 34.3729C231.772 35.5623 232.604 36.5138 233.645 37.2275C234.715 37.9114 235.905 38.2534 237.213 38.2534C238.016 38.2534 238.789 38.1195 239.533 37.8519C240.306 37.5546 240.975 37.168 241.54 36.6923C242.105 36.1868 242.506 35.6367 242.744 35.0419L247.561 36.4692C247.056 37.6289 246.297 38.6548 245.286 39.5468C244.305 40.4389 243.131 41.1525 241.763 41.6878C240.425 42.1933 238.923 42.446 237.258 42.446Z" fill="white"/>
<defs>
<clipPath id="clip0_6463_10744">
<rect width="38.0534" height="38.0678" fill="white" transform="translate(0.84082 9.02954)"/>
</clipPath>
</defs>
</svg>
